<svg viewBox="0 0 32 32" xml:space="preserve" xmlns="http://www.w3.org/2000/svg"><path d="M29.5 27h-6a.5.5 0 0 1-.5-.5v-5a.5.5 0 0 1 .5-.5h6a.5.5 0 0 1 .5.5v5a.5.5 0 0 1-.5.5zM24 26h5v-4h-5v4zM18.5 27h-6a.5.5 0 0 1-.5-.5v-5a.5.5 0 0 1 .5-.5h6a.5.5 0 0 1 .5.5v5a.5.5 0 0 1-.5.5zM13 26h5v-4h-5v4zM29.5 29h-6a.5.5 0 0 1 0-1h6a.5.5 0 0 1 0 1zM18.5 29h-6a.5.5 0 0 1 0-1h6a.5.5 0 0 1 0 1zM7.5 29h-6a.5.5 0 0 1 0-1h6a.5.5 0 0 1 0 1zM7.5 27h-6a.5.5 0 0 1-.5-.5v-5a.5.5 0 0 1 .5-.5h6a.5.5 0 0 1 .5.5v5a.5.5 0 0 1-.5.5zM2 26h5v-4H2v4zM26.5 12h-22a.5.5 0 0 1-.5-.5v-8a.5.5 0 0 1 .5-.5h22a.5.5 0 0 1 .5.5v8a.5.5 0 0 1-.5.5zM5 11h21V4H5v7z" fill="#9340ff" class="fill-263238"></path><path d="M15.5 15a.5.5 0 0 1-.5-.5v-3a.5.5 0 0 1 1 0v3a.5.5 0 0 1-.5.5zM15.5 20a.5.5 0 0 1-.5-.5v-3a.5.5 0 0 1 1 0v3a.5.5 0 0 1-.5.5z" fill="#9340ff" class="fill-263238"></path><path d="M26.5 20a.5.5 0 0 1-.5-.5V17H5v2.5a.5.5 0 0 1-1 0v-3a.5.5 0 0 1 .5-.5h22a.5.5 0 0 1 .5.5v3a.5.5 0 0 1-.5.5zM22.5 9h-14a.5.5 0 0 1 0-1h14a.5.5 0 0 1 0 1zM22.5 7h-14a.5.5 0 0 1 0-1h14a.5.5 0 0 1 0 1z" fill="#9340ff" class="fill-263238"></path></svg>