<svg data-name="Layer 2" viewBox="0 0 38 38" xmlns="http://www.w3.org/2000/svg"><path d="M29.429 36.744H8.571a5.259 5.259 0 0 1-5.252-5.253V6.509a5.259 5.259 0 0 1 5.252-5.253h13.32A5.239 5.239 0 0 1 25.615 2.8l7.521 7.514a5.308 5.308 0 0 1 1.545 3.729v17.448a5.259 5.259 0 0 1-5.252 5.253ZM8.571 3.756a2.757 2.757 0 0 0-2.752 2.753v24.982a2.757 2.757 0 0 0 2.752 2.753h20.858a2.757 2.757 0 0 0 2.752-2.753V14.04a2.789 2.789 0 0 0-.812-1.96l-7.521-7.513a2.75 2.75 0 0 0-1.957-.811Z" fill="#9340ff" class="fill-000000"></path><path d="M32.32 13.72h-4.655a5.24 5.24 0 0 1-5.235-5.235V2.51h2.5v5.975a2.738 2.738 0 0 0 2.735 2.735h4.655ZM15.045 19.475a.533.533 0 0 1 .3.41.614.614 0 0 1-.145.51.455.455 0 0 1-.335.2.768.768 0 0 1-.415-.08 2.608 2.608 0 0 0-.505-.17 2.511 2.511 0 0 0-.555-.059 2.566 2.566 0 0 0-.965.17 2.013 2.013 0 0 0-.725.484 2.112 2.112 0 0 0-.455.745 2.772 2.772 0 0 0-.155.95 2.91 2.91 0 0 0 .175 1.06 2.053 2.053 0 0 0 .485.75 1.95 1.95 0 0 0 .73.445 2.761 2.761 0 0 0 .91.146 2.9 2.9 0 0 0 .54-.051 1.836 1.836 0 0 0 .52-.18.716.716 0 0 1 .415-.07.528.528 0 0 1 .345.21.607.607 0 0 1 .145.515.526.526 0 0 1-.3.385 3.558 3.558 0 0 1-.535.215 3.913 3.913 0 0 1-.555.13 3.593 3.593 0 0 1-.57.045 4.017 4.017 0 0 1-1.365-.23 3.469 3.469 0 0 1-1.15-.679 3.153 3.153 0 0 1-.795-1.125 3.949 3.949 0 0 1-.29-1.566 3.723 3.723 0 0 1 .265-1.42 3.314 3.314 0 0 1 .75-1.125 3.47 3.47 0 0 1 1.145-.74 3.823 3.823 0 0 1 1.44-.265 3.739 3.739 0 0 1 .86.1 3.548 3.548 0 0 1 .79.29Z" fill="#9340ff" class="fill-000000"></path><path d="M13.4 26.359a4.206 4.206 0 0 1-1.407-.236 3.6 3.6 0 0 1-1.191-.7 3.32 3.32 0 0 1-.832-1.173 4.088 4.088 0 0 1-.3-1.615 3.862 3.862 0 0 1 .274-1.467A3.43 3.43 0 0 1 10.723 20a3.621 3.621 0 0 1 1.186-.768 3.972 3.972 0 0 1 1.491-.272 3.819 3.819 0 0 1 .889.1 3.673 3.673 0 0 1 .817.3.656.656 0 0 1 .373.5.742.742 0 0 1-.173.61.57.57 0 0 1-.418.245.887.887 0 0 1-.482-.091 2.43 2.43 0 0 0-.479-.161 2.352 2.352 0 0 0-.527-.057 2.464 2.464 0 0 0-.918.161 1.916 1.916 0 0 0-.682.454 1.982 1.982 0 0 0-.427.7 2.659 2.659 0 0 0-.148.907 2.794 2.794 0 0 0 .167 1.014 1.931 1.931 0 0 0 .455.706 1.842 1.842 0 0 0 .684.417 2.763 2.763 0 0 0 1.386.089 1.674 1.674 0 0 0 .485-.168.884.884 0 0 1 .491-.083.657.657 0 0 1 .425.257.723.723 0 0 1 .169.618.649.649 0 0 1-.373.472 3.636 3.636 0 0 1-.552.222 4.3 4.3 0 0 1-.573.134 3.669 3.669 0 0 1-.589.053Zm0-7.149a3.722 3.722 0 0 0-1.4.256 3.374 3.374 0 0 0-1.1.713 3.192 3.192 0 0 0-.721 1.083 3.62 3.62 0 0 0-.256 1.373 3.82 3.82 0 0 0 .28 1.515 3.054 3.054 0 0 0 .763 1.082 3.339 3.339 0 0 0 1.109.655 3.938 3.938 0 0 0 1.323.222 3.413 3.413 0 0 0 .55-.043 3.9 3.9 0 0 0 .538-.126 3.389 3.389 0 0 0 .514-.207.4.4 0 0 0 .238-.3.478.478 0 0 0-.12-.412.405.405 0 0 0-.265-.165.574.574 0 0 0-.343.06 1.966 1.966 0 0 1-.551.189 3.007 3.007 0 0 1-1.514-.1 2.087 2.087 0 0 1-.776-.474 2.188 2.188 0 0 1-.515-.795 3.058 3.058 0 0 1-.183-1.1 2.924 2.924 0 0 1 .162-.992 2.218 2.218 0 0 1 .483-.789 2.143 2.143 0 0 1 .769-.515 2.727 2.727 0 0 1 1.015-.18 2.643 2.643 0 0 1 1.112.241.667.667 0 0 0 .351.07.339.339 0 0 0 .246-.15.5.5 0 0 0 .123-.417.407.407 0 0 0-.238-.318 3.466 3.466 0 0 0-.762-.28 3.6 3.6 0 0 0-.832-.096ZM19.165 26.235a4.2 4.2 0 0 1-1.26-.175 3 3 0 0 1-1.07-.615.792.792 0 0 1-.2-.25.616.616 0 0 1-.07-.279.574.574 0 0 1 .165-.406.55.55 0 0 1 .415-.175.527.527 0 0 1 .34.121 3.168 3.168 0 0 0 .755.469 2.353 2.353 0 0 0 .925.16 1.933 1.933 0 0 0 .68-.115 1.322 1.322 0 0 0 .5-.309.622.622 0 0 0 .19-.446.753.753 0 0 0-.18-.509 1.359 1.359 0 0 0-.55-.356 4.2 4.2 0 0 0-.94-.225 4.122 4.122 0 0 1-.95-.245 2.206 2.206 0 0 1-.685-.42 1.64 1.64 0 0 1-.415-.6 2.05 2.05 0 0 1-.14-.775 1.838 1.838 0 0 1 .335-1.11 2.094 2.094 0 0 1 .9-.7 3.233 3.233 0 0 1 1.26-.239 3.612 3.612 0 0 1 1.2.194 2.8 2.8 0 0 1 .905.5.665.665 0 0 1 .29.53.565.565 0 0 1-.17.4.533.533 0 0 1-.4.18.444.444 0 0 1-.27-.089 1.813 1.813 0 0 0-.43-.266 3.934 3.934 0 0 0-.57-.21 2.05 2.05 0 0 0-.56-.085 2.091 2.091 0 0 0-.725.11.992.992 0 0 0-.445.3.693.693 0 0 0-.15.441.711.711 0 0 0 .175.494 1.168 1.168 0 0 0 .5.31 5.811 5.811 0 0 0 .79.205 8.266 8.266 0 0 1 1.055.26 2.486 2.486 0 0 1 .755.385 1.458 1.458 0 0 1 .45.59 2.223 2.223 0 0 1 .15.865 1.786 1.786 0 0 1-.36 1.12 2.293 2.293 0 0 1-.945.72 3.18 3.18 0 0 1-1.25.245Z" fill="#9340ff" class="fill-000000"></path><path d="M19.165 26.359a4.335 4.335 0 0 1-1.3-.18 3.131 3.131 0 0 1-1.115-.64.927.927 0 0 1-.23-.289.744.744 0 0 1-.083-.335.7.7 0 0 1 .2-.491.669.669 0 0 1 .506-.214.656.656 0 0 1 .418.147 3.087 3.087 0 0 0 .726.453 2.265 2.265 0 0 0 .876.15 1.831 1.831 0 0 0 .637-.107 1.235 1.235 0 0 0 .454-.28.5.5 0 0 0 .154-.358.631.631 0 0 0-.15-.429 1.252 1.252 0 0 0-.5-.32 4.134 4.134 0 0 0-.912-.217 4.423 4.423 0 0 1-.98-.253 2.348 2.348 0 0 1-.723-.444 1.794 1.794 0 0 1-.446-.646 2.175 2.175 0 0 1-.149-.821 1.965 1.965 0 0 1 .359-1.184 2.236 2.236 0 0 1 .958-.742 3.369 3.369 0 0 1 1.308-.249 3.764 3.764 0 0 1 1.246.2 2.941 2.941 0 0 1 .946.519.784.784 0 0 1 .333.625.689.689 0 0 1-.2.485.656.656 0 0 1-.491.22.565.565 0 0 1-.345-.114 1.686 1.686 0 0 0-.408-.253 3.62 3.62 0 0 0-.551-.2 1.932 1.932 0 0 0-1.207.022.869.869 0 0 0-.391.26.566.566 0 0 0-.123.363.582.582 0 0 0 .143.41 1.046 1.046 0 0 0 .453.277 5.8 5.8 0 0 0 .774.2 8.151 8.151 0 0 1 1.069.264 2.613 2.613 0 0 1 .793.405 1.6 1.6 0 0 1 .488.64 2.355 2.355 0 0 1 .16.914 1.917 1.917 0 0 1-.386 1.2 2.43 2.43 0 0 1-1 .759 3.327 3.327 0 0 1-1.311.253Zm-2.02-1.9a.42.42 0 0 0-.324.136.448.448 0 0 0-.131.319.489.489 0 0 0 .057.223.656.656 0 0 0 .169.211 2.884 2.884 0 0 0 1.026.591 4.076 4.076 0 0 0 1.223.169 3.075 3.075 0 0 0 1.216-.24 2.187 2.187 0 0 0 .895-.68 1.656 1.656 0 0 0 .334-1.044 2.13 2.13 0 0 0-.14-.817 1.347 1.347 0 0 0-.412-.54 2.361 2.361 0 0 0-.717-.364 7.763 7.763 0 0 0-1.038-.256 6.243 6.243 0 0 1-.809-.21 1.29 1.29 0 0 1-.557-.346.833.833 0 0 1-.207-.577.818.818 0 0 1 .177-.517 1.1 1.1 0 0 1 .5-.34 2.187 2.187 0 0 1 1.362-.029 4 4 0 0 1 .588.217 1.914 1.914 0 0 1 .46.285.31.31 0 0 0 .188.059.408.408 0 0 0 .309-.142.437.437 0 0 0 .136-.313.548.548 0 0 0-.242-.433 2.727 2.727 0 0 0-.87-.474 3.506 3.506 0 0 0-1.163-.188 3.109 3.109 0 0 0-1.212.23 1.986 1.986 0 0 0-.852.658 1.727 1.727 0 0 0-.311 1.037 1.927 1.927 0 0 0 .131.728 1.535 1.535 0 0 0 .384.555 2.1 2.1 0 0 0 .647.4 4.1 4.1 0 0 0 .922.237 4.4 4.4 0 0 1 .967.232 1.5 1.5 0 0 1 .6.391.88.88 0 0 1 .21.591.749.749 0 0 1-.225.532 1.46 1.46 0 0 1-.546.34 2.065 2.065 0 0 1-.724.123 2.516 2.516 0 0 1-.974-.17 3.332 3.332 0 0 1-.785-.488.4.4 0 0 0-.262-.095ZM25.635 26.235a4.2 4.2 0 0 1-1.26-.175 2.993 2.993 0 0 1-1.07-.615.765.765 0 0 1-.2-.25.616.616 0 0 1-.07-.279.574.574 0 0 1 .165-.406.548.548 0 0 1 .415-.175.527.527 0 0 1 .34.121 3.168 3.168 0 0 0 .755.469 2.353 2.353 0 0 0 .925.16 1.937 1.937 0 0 0 .68-.115 1.33 1.33 0 0 0 .5-.309.626.626 0 0 0 .19-.446.753.753 0 0 0-.18-.509 1.366 1.366 0 0 0-.55-.356 4.2 4.2 0 0 0-.94-.225 4.122 4.122 0 0 1-.95-.245 2.195 2.195 0 0 1-.685-.42 1.64 1.64 0 0 1-.415-.6 2.031 2.031 0 0 1-.14-.775 1.831 1.831 0 0 1 .335-1.11 2.094 2.094 0 0 1 .905-.7 3.233 3.233 0 0 1 1.26-.239 3.612 3.612 0 0 1 1.205.194 2.813 2.813 0 0 1 .9.5.668.668 0 0 1 .29.53.569.569 0 0 1-.17.4.535.535 0 0 1-.4.18.444.444 0 0 1-.27-.089 1.813 1.813 0 0 0-.43-.266 3.934 3.934 0 0 0-.57-.21 2.05 2.05 0 0 0-.56-.085 2.091 2.091 0 0 0-.725.11.992.992 0 0 0-.445.3.693.693 0 0 0-.15.441.711.711 0 0 0 .175.494 1.168 1.168 0 0 0 .5.31 5.772 5.772 0 0 0 .79.205 8.308 8.308 0 0 1 1.055.26 2.486 2.486 0 0 1 .755.385 1.458 1.458 0 0 1 .45.59 2.223 2.223 0 0 1 .15.865 1.786 1.786 0 0 1-.36 1.12 2.293 2.293 0 0 1-.945.72 3.18 3.18 0 0 1-1.255.245Z" fill="#9340ff" class="fill-000000"></path><path d="M25.635 26.359a4.341 4.341 0 0 1-1.3-.18 3.136 3.136 0 0 1-1.114-.64.913.913 0 0 1-.23-.289.744.744 0 0 1-.083-.335.7.7 0 0 1 .2-.491.673.673 0 0 1 .507-.214.658.658 0 0 1 .418.147 3.067 3.067 0 0 0 .726.453 2.265 2.265 0 0 0 .876.15 1.821 1.821 0 0 0 .636-.107 1.231 1.231 0 0 0 .455-.28.5.5 0 0 0 .154-.358.631.631 0 0 0-.15-.429 1.249 1.249 0 0 0-.5-.32 4.11 4.11 0 0 0-.911-.217 4.408 4.408 0 0 1-.98-.253 2.348 2.348 0 0 1-.723-.444 1.794 1.794 0 0 1-.446-.646 2.175 2.175 0 0 1-.149-.821 1.965 1.965 0 0 1 .359-1.184 2.239 2.239 0 0 1 .957-.742 3.377 3.377 0 0 1 1.309-.249 3.768 3.768 0 0 1 1.246.2 2.936 2.936 0 0 1 .945.519.783.783 0 0 1 .334.625.689.689 0 0 1-.2.485.656.656 0 0 1-.491.22.565.565 0 0 1-.345-.114 1.686 1.686 0 0 0-.408-.253 3.632 3.632 0 0 0-.552-.2 1.932 1.932 0 0 0-1.207.022.871.871 0 0 0-.39.26.566.566 0 0 0-.123.363.582.582 0 0 0 .143.41 1.046 1.046 0 0 0 .453.277 5.825 5.825 0 0 0 .773.2 8.129 8.129 0 0 1 1.07.264 2.613 2.613 0 0 1 .793.405 1.6 1.6 0 0 1 .488.64 2.355 2.355 0 0 1 .16.914 1.917 1.917 0 0 1-.386 1.2 2.436 2.436 0 0 1-.995.759 3.33 3.33 0 0 1-1.319.253Zm-2.02-1.9a.42.42 0 0 0-.324.136.448.448 0 0 0-.131.319.5.5 0 0 0 .056.223.66.66 0 0 0 .17.211 2.876 2.876 0 0 0 1.026.591 4.076 4.076 0 0 0 1.223.169 3.075 3.075 0 0 0 1.216-.24 2.187 2.187 0 0 0 .895-.68 1.656 1.656 0 0 0 .334-1.044 2.111 2.111 0 0 0-.141-.817 1.336 1.336 0 0 0-.411-.54 2.361 2.361 0 0 0-.717-.364 7.742 7.742 0 0 0-1.039-.256 6.224 6.224 0 0 1-.808-.21 1.29 1.29 0 0 1-.557-.346.833.833 0 0 1-.207-.577.817.817 0 0 1 .176-.517 1.111 1.111 0 0 1 .5-.34 2.191 2.191 0 0 1 1.363-.029 4 4 0 0 1 .588.217 1.934 1.934 0 0 1 .46.285.31.31 0 0 0 .188.059.408.408 0 0 0 .309-.142.441.441 0 0 0 .136-.313.549.549 0 0 0-.243-.433 2.71 2.71 0 0 0-.869-.474 3.506 3.506 0 0 0-1.163-.188 3.105 3.105 0 0 0-1.212.23 1.986 1.986 0 0 0-.852.658 1.72 1.72 0 0 0-.311 1.037 1.928 1.928 0 0 0 .13.728 1.538 1.538 0 0 0 .385.555 2.1 2.1 0 0 0 .647.4 4.073 4.073 0 0 0 .921.237 4.387 4.387 0 0 1 .967.232 1.5 1.5 0 0 1 .6.391.88.88 0 0 1 .21.591.749.749 0 0 1-.225.532 1.457 1.457 0 0 1-.547.34 2.055 2.055 0 0 1-.723.123 2.513 2.513 0 0 1-.974-.17 3.357 3.357 0 0 1-.786-.488.4.4 0 0 0-.26-.095Z" fill="#9340ff" class="fill-000000"></path></svg>