<svg viewBox="0 0 48 48" xmlns="http://www.w3.org/2000/svg"><path d="M46 10a2 2 0 0 0 2-2V2a2 2 0 0 0-2-2h-6a2 2 0 0 0-2 2v2h-9V2a2 2 0 0 0-2-2h-6a2 2 0 0 0-2 2v2h-9V2a2 2 0 0 0-2-2H2a2 2 0 0 0-2 2v6a2 2 0 0 0 2 2h2v9H2a2 2 0 0 0-2 2v6a2 2 0 0 0 2 2h2v9H2a2 2 0 0 0-2 2v6a2 2 0 0 0 2 2h6a2 2 0 0 0 2-2v-2h9v2a2 2 0 0 0 2 2h6a2 2 0 0 0 2-2v-2h9v2a2 2 0 0 0 2 2h6a2 2 0 0 0 2-2v-6a2 2 0 0 0-2-2h-2v-9h2a2 2 0 0 0 2-2v-6a2 2 0 0 0-2-2h-2v-9ZM21 2h6v6h-6ZM2 8V2h6v6Zm0 19v-6h6v6Zm6 19H2v-6h6Zm19 0h-6v-6h6Zm11-6v2h-9v-2a2 2 0 0 0-2-2h-6a2 2 0 0 0-2 2v2h-9v-2a2 2 0 0 0-2-2H6v-9h2a2 2 0 0 0 2-2v-6a2 2 0 0 0-2-2H6v-9h2a2 2 0 0 0 2-2V6h9v2a2 2 0 0 0 2 2h6a2 2 0 0 0 2-2V6h9v2a2 2 0 0 0 2 2h2v9h-2a2 2 0 0 0-2 2v6a2 2 0 0 0 2 2h2v9h-2a2 2 0 0 0-2 2Zm8 0v6h-6v-6Zm0-19v6h-6v-6ZM40 8V2h6v6Z" data-name="46-Area" fill="#9340ff" class="fill-000000"></path></svg>