<svg viewBox="0 0 91 91" xml:space="preserve" xmlns="http://www.w3.org/2000/svg"><path d="M46.365 47.058c-4.823 0-8.747 3.924-8.747 8.746 0 4.824 3.924 8.75 8.747 8.75 4.824 0 8.75-3.926 8.75-8.75 0-4.823-3.926-8.746-8.75-8.746zm0 12.47a3.727 3.727 0 0 1-3.721-3.725 3.725 3.725 0 0 1 3.721-3.721 3.728 3.728 0 0 1 3.725 3.721 3.73 3.73 0 0 1-3.725 3.725z" fill="#9340ff" class="fill-000000"></path><path d="m67.301 49.632-5.129-8.881a2.507 2.507 0 0 0-1.525-1.17 2.506 2.506 0 0 0-1.908.252l-3.543 2.049a15.965 15.965 0 0 0-1.188-.686v-4.098a2.513 2.513 0 0 0-2.514-2.514h-10.26a2.513 2.513 0 0 0-2.512 2.514v4.098c-.348.184-.691.379-1.027.588l-3.525-2.092a2.509 2.509 0 0 0-3.443.881l-5.225 8.823a2.51 2.51 0 0 0 .879 3.439l3.52 2.09a13.18 13.18 0 0 0-.009 1.57l-3.549 2.049a2.51 2.51 0 0 0-.918 3.433l5.129 8.875a2.513 2.513 0 0 0 3.432.92l3.551-2.049c.385.244.781.473 1.188.686v4.1a2.512 2.512 0 0 0 2.512 2.512h10.26a2.513 2.513 0 0 0 2.514-2.512v-4.1c.35-.184.689-.379 1.023-.584l3.529 2.088a2.515 2.515 0 0 0 3.441-.883l5.227-8.824a2.51 2.51 0 0 0-.879-3.441l-3.516-2.084a13.19 13.19 0 0 0 .009-1.572l3.539-2.045a2.514 2.514 0 0 0 .917-3.432zm-9.608 4.488c.098.656.145 1.191.145 1.684 0 .543-.051 1.121-.162 1.822a2.516 2.516 0 0 0 1.201 2.551l2.75 1.629-2.668 4.504-2.754-1.629a2.514 2.514 0 0 0-2.822.18 11.526 11.526 0 0 1-2.818 1.607 2.513 2.513 0 0 0-1.582 2.334v3.193h-5.235v-3.193a2.51 2.51 0 0 0-1.584-2.334 11.566 11.566 0 0 1-2.922-1.691 2.512 2.512 0 0 0-2.822-.211l-2.771 1.6-2.617-4.527 2.775-1.602a2.516 2.516 0 0 0 1.229-2.541 11.721 11.721 0 0 1-.137-1.691c0-.539.049-1.123.158-1.838a2.511 2.511 0 0 0-1.201-2.535l-2.752-1.635L33.77 45.3l2.748 1.63a2.51 2.51 0 0 0 2.822-.176 11.528 11.528 0 0 1 2.816-1.61 2.515 2.515 0 0 0 1.592-2.34V39.61h5.235v3.193c0 1.031.629 1.961 1.59 2.34 1.047.414 2.033.982 2.928 1.69a2.515 2.515 0 0 0 2.816.203l2.762-1.595 2.615 4.528-2.773 1.604a2.515 2.515 0 0 0-1.228 2.547zM26.833 20.706h.174a2.513 2.513 0 1 0 0-5.026h-.174a2.513 2.513 0 1 0 0 5.026zM15.447 20.706h.176a2.513 2.513 0 0 0 0-5.026h-.176a2.512 2.512 0 0 0 0 5.026zM38.22 20.706h.174a2.513 2.513 0 1 0 0-5.026h-.174a2.513 2.513 0 1 0 0 5.026z" fill="#9340ff" class="fill-000000"></path><path d="M.283 83.366a2.513 2.513 0 0 0 2.512 2.514h77.454c5.766 0 10.455-4.691 10.455-10.457V8.147a2.512 2.512 0 0 0-2.512-2.512h-85.4A2.512 2.512 0 0 0 .28 8.147v20.094l.002.02v55.105zm79.965-2.512H5.308v-50.1h80.37v44.668a5.437 5.437 0 0 1-5.43 5.432zm5.43-70.193v15.064H5.306V10.661h80.372z" fill="#9340ff" class="fill-000000"></path></svg>