<svg viewBox="0 0 64 64" xmlns="http://www.w3.org/2000/svg"><g data-name="outline color"><path d="M45 46c-7.22 0-15-1.56-15-5s7.78-5 15-5 15 1.56 15 5-7.78 5-15 5Zm0-8c-8.58 0-13 2.1-13 3s4.42 3 13 3 13-2.1 13-3-4.42-3-13-3Z" fill="#9340ff" class="fill-f57c00"></path><path d="M45 50c-7.22 0-15-1.56-15-5 0-1.12.82-2.1 2.45-2.9a1 1 0 1 1 .88 1.8c-1 .52-1.33.94-1.33 1.1 0 .9 4.42 3 13 3s13-2.1 13-3c0-.16-.28-.58-1.33-1.1a1 1 0 1 1 .88-1.8c1.63.8 2.45 1.78 2.45 2.9 0 3.44-7.78 5-15 5Z" fill="#9340ff" class="fill-f57c00"></path><path d="M45 54c-7.22 0-15-1.56-15-5 0-1.12.82-2.1 2.45-2.9a1 1 0 1 1 .88 1.8c-1 .52-1.33.94-1.33 1.1 0 .9 4.42 3 13 3s13-2.1 13-3c0-.16-.28-.58-1.33-1.1a1 1 0 1 1 .88-1.8c1.63.8 2.45 1.78 2.45 2.9 0 3.44-7.78 5-15 5Z" fill="#9340ff" class="fill-f57c00"></path><path d="M45 58c-7.22 0-15-1.56-15-5 0-1.12.82-2.1 2.45-2.9a1 1 0 1 1 .88 1.8c-1 .52-1.33.94-1.33 1.1 0 .9 4.42 3 13 3s13-2.1 13-3c0-.16-.28-.58-1.33-1.1a1 1 0 1 1 .88-1.8c1.63.8 2.45 1.78 2.45 2.9 0 3.44-7.78 5-15 5ZM50 42H40a1 1 0 0 1 0-2h10a1 1 0 0 1 0 2Z" fill="#9340ff" class="fill-f57c00"></path><path d="M21.67 55.1a5.06 5.06 0 0 1-1.79-.33 5 5 0 0 1-2.77-2.63L4.46 23.84A5 5 0 0 1 7 17.24l21-9.4a1 1 0 0 1 .82 1.82l-21 9.4a3 3 0 0 0-1.58 1.67A3 3 0 0 0 6.28 23l12.65 28.3a3 3 0 0 0 4 1.52l3.79-1.7A1 1 0 1 1 27.5 53l-3.79 1.7a5 5 0 0 1-2.04.4Z" fill="#9340ff" class="fill-999999"></path><path d="M18 34.41a3.5 3.5 0 1 1 3.19-4.93.36.36 0 0 1 0 .11 1 1 0 0 1 .06.33 1 1 0 0 1-1.94.34 1.5 1.5 0 1 0-.8 2.05 1 1 0 1 1 .86 1.8 3.39 3.39 0 0 1-1.37.3ZM22.84 24.31a1 1 0 0 1-.91-.59l-2.05-4.59a1 1 0 0 1 0-.77.94.94 0 0 1 .52-.55l4.59-2a1 1 0 0 1 .82 1.82l-3.68 1.64 1.64 3.67a1 1 0 0 1-.5 1.32 1 1 0 0 1-.43.05Z" fill="#9340ff" class="fill-666666"></path><path d="M20.31 30.89a1 1 0 0 1-.95-.67 1 1 0 0 1 .64-1.28 1 1 0 0 1 1.29.62 1 1 0 0 1-.6 1.27 1.26 1.26 0 0 1-.38.06Z" fill="#9340ff" class="fill-999999"></path><path d="M27 45.39a.92.92 0 0 1-.36-.07l-6.95-2.66a5 5 0 0 1-2.88-6.45l2.53-6.63a.37.37 0 0 1 .05-.11l8.52-22.22a5 5 0 0 1 6.46-2.88l22.42 8.57a5 5 0 0 1 2.89 6.44L54.07 34a1 1 0 1 1-1.86-.72l5.6-14.65a3 3 0 0 0-1.74-3.87L33.65 6.23A3 3 0 0 0 29.77 8l-8.5 22.27v.08l-2.53 6.61a3 3 0 0 0 1.74 3.87l7 2.66a1 1 0 0 1-.48 1.9Z" fill="#9340ff" class="fill-999999"></path><path d="M31 28.17a3.43 3.43 0 0 1-1.25-.24 3.5 3.5 0 1 1 4.52-2 3.46 3.46 0 0 1-1.84 1.95 3.57 3.57 0 0 1-1.43.29Zm0-5a1.5 1.5 0 0 0-.53 2.91 1.51 1.51 0 0 0 1.93-.87 1.48 1.48 0 0 0 0-1.15 1.53 1.53 0 0 0-.83-.79 1.71 1.71 0 0 0-.57-.11ZM49 23.86a3.07 3.07 0 0 1-1.07-.2 3 3 0 0 1-1.67-1.58 3 3 0 0 1 1.51-4 3 3 0 0 1 4 1.51 3 3 0 0 1 .06 2.3A3 3 0 0 1 49 23.86Zm0-4a1 1 0 0 0-.93.65 1 1 0 0 0 0 .76 1 1 0 0 0 .55.53 1 1 0 0 0 .77 0 1 1 0 0 0 .52-.56 1 1 0 0 0 0-.76 1 1 0 0 0-.55-.53 1.15 1.15 0 0 0-.36-.1ZM45.43 33.2a3.07 3.07 0 0 1-1.07-.2 3 3 0 0 1-1.73-3.87 3 3 0 0 1 1.58-1.67 3 3 0 0 1 4 3.81 3 3 0 0 1-2.78 1.93Zm0-4a1.15 1.15 0 0 0-.41.08 1 1 0 0 0-.52.56 1 1 0 0 0 .57 1.29 1 1 0 0 0 1.29-.58 1 1 0 0 0 0-.76 1 1 0 0 0-.55-.53 1.13 1.13 0 0 0-.38-.06Z" fill="#9340ff" class="fill-666666"></path><path d="M43.56 30.48a1 1 0 0 1-.35-.06l-5.61-2.14a1 1 0 0 1-.56-.53A1.08 1.08 0 0 1 37 27l3.57-9.34a1 1 0 0 1 1.29-.57l5.61 2.14a1 1 0 0 1 .58 1.29 1 1 0 0 1-1.3.58l-4.65-1.81-2.85 7.47 4.67 1.79a1 1 0 0 1 .58 1.29 1 1 0 0 1-.94.64Z" fill="#9340ff" class="fill-666666"></path><path d="M38 28.34a1.13 1.13 0 0 1-.36-.06l-4.67-1.79a1 1 0 0 1 .71-1.87l4.67 1.79a1 1 0 0 1-.35 1.93Z" fill="#9340ff" class="fill-666666"></path></g></svg>