<svg viewBox="0 0 512 512" xml:space="preserve" xmlns="http://www.w3.org/2000/svg" enable-background="new 0 0 512 512"><path d="M199.9 282.7v105.5l-.8-.1-103.3-20.8v-84.6h104.1m2.2-16H93.4c-7.4 0-13.4 6.1-13.4 13.7v89c0 6.6 4.6 11.9 10.7 13.2l105.4 21.1 6.9 1.2c7-.3 12.7-6.4 12.7-13.5v-111c0-7.7-6.2-13.7-13.6-13.7zM416.2 282.7v147.2l-2.1 1.1-160.4-32-1-.2v-116h163.5m2.2-16.1H250.2c-7.4 0-13.4 6.1-13.4 13.7v120.7c0 5.5 3.3 10.1 7.9 12.2l.2.2 5.3 1.1h.3l164.7 32.9c.2.1.5.3.7.3.1 0 .2 0 .3-.1.7.4 1.4.4 2.1.4 7.4 0 13.6-6 13.6-13.5V280.4c.1-7.7-6.1-13.7-13.5-13.7zM414 81.1l2.1 1.1v147.2H252.6v-116l1-.2L414 81.1m4.4-17.1c-.7 0-1.4 0-2.1.4-.1-.1-.2-.1-.3-.1-.2 0-.5.1-.7.3L250.5 97.4h-.3l-5.1 1.1s-.2 0-.4.2c-4.6 2.1-7.9 6.9-7.9 12.4v120.5c0 7.6 6 13.7 13.4 13.7h168.2c7.4 0 13.6-6.1 13.6-13.7V77.5c0-7.4-6.2-13.5-13.6-13.5zM199.9 123.9v105.5H95.8v-84.6L199.1 124l.8-.1M203 107l-6.9 1.2-105.4 21.2C84.6 130.7 80 136 80 142.6v89c0 7.6 6 13.7 13.4 13.7h108.8c7.4 0 13.6-6.1 13.6-13.7V120.5c-.1-7.1-5.7-13.1-12.8-13.5z" fill="#9340ff" class="fill-000000"></path></svg>