<svg viewBox="0 0 128 128" xml:space="preserve" xmlns="http://www.w3.org/2000/svg"><path d="M64.049 114.172v-2l-.006 2c-27.642 0-50.129-22.486-50.129-50.128s22.487-50.13 50.129-50.13 50.129 22.488 50.129 50.13c0 27.642-22.485 50.128-50.123 50.128zm-.006-96.258c-25.436 0-46.129 20.694-46.129 46.13 0 25.436 20.693 46.128 46.129 46.128h.006c25.433 0 46.123-20.692 46.123-46.128s-20.693-46.13-46.129-46.13z" fill="#9340ff" class="fill-000000"></path><path d="M64.043 74.354a2 2 0 0 1-2-2v-9.756a2 2 0 0 1 2-2c5.27 0 9.557-4.286 9.557-9.556 0-5.271-4.287-9.56-9.557-9.56s-9.557 4.289-9.557 9.56a2 2 0 0 1-4 0c0-7.477 6.081-13.56 13.557-13.56S77.6 43.565 77.6 51.042c0 6.796-5.026 12.439-11.557 13.409v7.903a2 2 0 0 1-2 2z" fill="#9340ff" class="fill-000000"></path><circle cx="64.042" cy="85.098" r="3.796" fill="#9340ff" class="fill-000000"></circle></svg>